<?xml version="1.0" encoding="UTF-8" standalone="no"?>
<!-- Created with Inkscape (http://www.inkscape.org/) -->

<svg
   xmlns:dc="http://purl.org/dc/elements/1.1/"
   xmlns:cc="http://creativecommons.org/ns#"
   xmlns:rdf="http://www.w3.org/1999/02/22-rdf-syntax-ns#"
   xmlns:svg="http://www.w3.org/2000/svg"
   xmlns="http://www.w3.org/2000/svg"
   xmlns:sodipodi="http://sodipodi.sourceforge.net/DTD/sodipodi-0.dtd"
   xmlns:inkscape="http://www.inkscape.org/namespaces/inkscape"
   width="44.712849mm"
   height="48.907394mm"
   viewBox="0 0 44.712849 48.907394"
   version="1.1"
   id="svg8"
   inkscape:version="0.92.4 (5da689c313, 2019-01-14)"
   sodipodi:docname="logo.svg">
  <defs
     id="defs2">
	

		
	</defs>
  <sodipodi:namedview
     id="base"
     pagecolor="#ffffff"
     bordercolor="#666666"
     borderopacity="1.0"
     inkscape:pageopacity="0.0"
     inkscape:pageshadow="2"
     inkscape:zoom="0.98994949"
     inkscape:cx="139.17551"
     inkscape:cy="181.90821"
     inkscape:document-units="mm"
     inkscape:current-layer="layer1"
     showgrid="false"
     fit-margin-top="0"
     fit-margin-left="0"
     fit-margin-right="0"
     fit-margin-bottom="0"
     inkscape:window-width="1920"
     inkscape:window-height="1017"
     inkscape:window-x="-8"
     inkscape:window-y="-8"
     inkscape:window-maximized="1" />
  <metadata
     id="metadata5">
    <rdf:RDF>
      <cc:Work
         rdf:about="">
        <dc:format>image/svg+xml</dc:format>
        <dc:type
           rdf:resource="http://purl.org/dc/dcmitype/StillImage" />
        <dc:title></dc:title>
      </cc:Work>
    </rdf:RDF>
  </metadata>
  <g
     inkscape:label="Ebene 1"
     inkscape:groupmode="layer"
     id="layer1"
     transform="translate(-6.5338526,-56.343151)">
    <text
       xml:space="preserve"
       style="font-style:normal;font-weight:normal;font-size:10.58333302px;line-height:1.25;font-family:sans-serif;letter-spacing:0px;word-spacing:0px;fill:#ff0000;fill-opacity:1;stroke:none;stroke-width:0.26458332"
       x="37.33873"
       y="67.270393"
       id="text4520"><tspan
         sodipodi:role="line"
         x="37.33873"
         y="67.270393"
         style="fill:#ff0000;fill-opacity:1;stroke-width:0.26458332"
         id="tspan4522">E</tspan></text>
    <text
       xml:space="preserve"
       style="font-style:normal;font-weight:normal;font-size:10.58333302px;line-height:1.25;font-family:sans-serif;letter-spacing:0px;word-spacing:0px;fill:#00ff00;fill-opacity:1;stroke:none;stroke-width:0.26458332"
       x="37.121689"
       y="78.649147"
       id="text4528"><tspan
         sodipodi:role="line"
         x="37.121689"
         y="78.649147"
         style="fill:#00ff00;fill-opacity:1;stroke-width:0.26458332"
         id="tspan4530">C</tspan></text>
    <text
       xml:space="preserve"
       style="font-style:normal;font-weight:normal;font-size:10.58333302px;line-height:1.25;font-family:sans-serif;letter-spacing:0px;word-spacing:0px;fill:#0000ff;fill-opacity:1;stroke:none;stroke-width:0.26458332"
       x="36.739285"
       y="90.146774"
       id="text4536"><tspan
         sodipodi:role="line"
         id="tspan4534"
         x="36.739285"
         y="90.146774"
         style="fill:#0000ff;fill-opacity:1;stroke-width:0.26458332">O</tspan></text>
    <text
       xml:space="preserve"
       style="font-style:normal;font-weight:normal;font-size:10.58333302px;line-height:1.25;font-family:sans-serif;letter-spacing:0px;word-spacing:0px;fill:#000000;fill-opacity:0.62755103;stroke:none;stroke-width:0.26458332"
       x="25.196611"
       y="101.19395"
       id="text4540"><tspan
         sodipodi:role="line"
         id="tspan4538"
         x="25.196611"
         y="101.19395"
         style="fill:#000000;fill-opacity:0.62755103;stroke-width:0.26458332">Light</tspan></text>
    <g
       id="g4546"
       transform="matrix(0.09552207,0,0,0.09552207,-8.169045,56.343151)">
	<g
   id="g4544">
		<path
   inkscape:connector-curvature="0"
   d="M 281.12,353.354 V 42.221 C 281.12,18.941 262.18,0 238.899,0 215.617,0 196.678,18.941 196.678,42.221 v 311.133 c -26.391,15.093 -42.646,42.761 -42.756,73.36 -0.078,21.959 8.481,42.96 24.097,59.132 15.624,16.179 36.315,25.453 58.26,26.115 0.886,0.026 1.767,0.04 2.649,0.04 22.227,-10e-4 43.14,-8.461 59.142,-23.987 16.642,-16.149 25.806,-37.809 25.806,-60.992 -10e-4,-30.731 -16.257,-58.517 -42.756,-73.668 z m 5.785,123.152 c -13.496,13.095 -31.316,20.003 -50.142,19.427 -17.741,-0.534 -34.507,-8.072 -47.21,-21.226 -12.701,-13.152 -19.661,-30.176 -19.597,-47.937 0.093,-26.181 14.773,-49.723 38.31,-61.438 2.724,-1.355 4.444,-4.136 4.444,-7.177 V 42.221 c 0,-14.44 11.748,-26.188 26.188,-26.188 14.44,0 26.188,11.748 26.188,26.188 v 315.935 c 0,3.042 1.721,5.821 4.444,7.177 23.632,11.762 38.311,35.4 38.311,61.689 10e-4,18.809 -7.434,36.383 -20.936,49.484 z"
   id="path4542" />

	</g>

</g>
    <path
       inkscape:connector-curvature="0"
       d="M 15.416787,92.493965 V 65.846843 c 0,-0.416313 -0.342829,-0.753916 -0.765801,-0.753916 -0.422876,0 -0.7658,0.337508 -0.7658,0.753916 v 26.647122 c -2.311634,0.362528 -4.0841416,2.338392 -4.0841416,4.714488 0,2.632636 2.1757056,4.774577 4.8498466,4.774577 2.67414,0 4.849847,-2.141941 4.849847,-4.774577 1.9e-4,-2.376096 -1.772317,-4.35196 -4.083951,-4.714488 z m -0.765705,7.981325 c -1.829725,0 -3.318341,-1.465513 -3.318341,-3.266837 0,-1.801332 1.488616,-3.266842 3.318341,-3.266842 1.829725,0 3.318341,1.46551 3.318341,3.266842 0,1.801324 -1.488616,3.266837 -3.318341,3.266837 z"
       id="path4548"
       style="stroke-width:0.09477788" />
    <g
       id="g4558"
       transform="matrix(0.13169174,0,0,0.13169174,-15.339951,50.99776)">
	<g
   id="g4556">
		<path
   inkscape:connector-curvature="0"
   d="m 350.063,256.534 h -42.756 c -4.427,0 -8.017,3.589 -8.017,8.017 0,4.428 3.589,8.017 8.017,8.017 h 42.756 c 4.427,0 8.017,-3.589 8.017,-8.017 0,-4.428 -3.588,-8.017 -8.017,-8.017 z"
   id="path4554" />

	</g>

</g>
    <g
       id="g4564"
       transform="matrix(0.13169174,0,0,0.13169174,-15.339951,50.99776)">
	<g
   id="g4562">
		<path
   inkscape:connector-curvature="0"
   d="m 332.961,213.778 h -25.653 c -4.427,0 -8.017,3.589 -8.017,8.017 0,4.427 3.589,8.017 8.017,8.017 h 25.653 c 4.427,0 8.017,-3.589 8.017,-8.017 0,-4.427 -3.59,-8.017 -8.017,-8.017 z"
   id="path4560" />

	</g>

</g>
    <g
       id="g4570"
       transform="matrix(0.13169174,0,0,0.13169174,-15.339951,50.99776)">
	<g
   id="g4568">
		<path
   inkscape:connector-curvature="0"
   d="m 350.063,171.023 h -42.756 c -4.427,0 -8.017,3.589 -8.017,8.017 0,4.427 3.589,8.017 8.017,8.017 h 42.756 c 4.427,0 8.017,-3.589 8.017,-8.017 0,-4.428 -3.588,-8.017 -8.017,-8.017 z"
   id="path4566" />

	</g>

</g>
    <g
       id="g4576"
       transform="matrix(0.13169174,0,0,0.13169174,-15.339951,50.99776)">
	<g
   id="g4574">
		<path
   inkscape:connector-curvature="0"
   d="m 332.961,128.267 h -25.653 c -4.427,0 -8.017,3.589 -8.017,8.017 0,4.427 3.589,8.017 8.017,8.017 h 25.653 c 4.427,0 8.017,-3.589 8.017,-8.017 0,-4.428 -3.59,-8.017 -8.017,-8.017 z"
   id="path4572" />

	</g>

</g>
    <g
       id="g4582"
       transform="matrix(0.13169174,0,0,0.13169174,-15.339951,50.99776)">
	<g
   id="g4580">
		<path
   inkscape:connector-curvature="0"
   d="m 350.063,85.511 h -42.756 c -4.427,0 -8.017,3.589 -8.017,8.017 0,4.427 3.589,8.017 8.017,8.017 h 42.756 c 4.427,0 8.017,-3.589 8.017,-8.017 0,-4.427 -3.589,-8.017 -8.017,-8.017 z"
   id="path4578" />

	</g>

</g>
    <g
       id="g4584"
       transform="matrix(0.13169174,0,0,0.13169174,-15.339951,50.99776)">
</g>
    <g
       id="g4586"
       transform="matrix(0.13169174,0,0,0.13169174,-15.339951,50.99776)">
</g>
    <g
       id="g4588"
       transform="matrix(0.13169174,0,0,0.13169174,-15.339951,50.99776)">
</g>
    <g
       id="g4590"
       transform="matrix(0.13169174,0,0,0.13169174,-15.339951,50.99776)">
</g>
    <g
       id="g4592"
       transform="matrix(0.13169174,0,0,0.13169174,-15.339951,50.99776)">
</g>
    <g
       id="g4594"
       transform="matrix(0.13169174,0,0,0.13169174,-15.339951,50.99776)">
</g>
    <g
       id="g4596"
       transform="matrix(0.13169174,0,0,0.13169174,-15.339951,50.99776)">
</g>
    <g
       id="g4598"
       transform="matrix(0.13169174,0,0,0.13169174,-15.339951,50.99776)">
</g>
    <g
       id="g4600"
       transform="matrix(0.13169174,0,0,0.13169174,-15.339951,50.99776)">
</g>
    <g
       id="g4602"
       transform="matrix(0.13169174,0,0,0.13169174,-15.339951,50.99776)">
</g>
    <g
       id="g4604"
       transform="matrix(0.13169174,0,0,0.13169174,-15.339951,50.99776)">
</g>
    <g
       id="g4606"
       transform="matrix(0.13169174,0,0,0.13169174,-15.339951,50.99776)">
</g>
    <g
       id="g4608"
       transform="matrix(0.13169174,0,0,0.13169174,-15.339951,50.99776)">
</g>
    <g
       id="g4610"
       transform="matrix(0.13169174,0,0,0.13169174,-15.339951,50.99776)">
</g>
    <g
       id="g4612"
       transform="matrix(0.13169174,0,0,0.13169174,-15.339951,50.99776)">
</g>
  </g>
</svg>
